<svg xmlns="http://www.w3.org/2000/svg" width="16" height="17" viewBox="0 0 16 17" fill="none">
<path d="M8 0.124512C6.41775 0.124512 4.87104 0.593704 3.55544 1.47275C2.23985 2.35181 1.21447 3.60124 0.608967 5.06304C0.00346633 6.52485 -0.15496 8.13339 0.153721 9.68523C0.462403 11.2371 1.22433 12.6625 2.34315 13.7814C3.46197 14.9002 4.88743 15.6621 6.43928 15.9708C7.99113 16.2795 9.59966 16.121 11.0615 15.5155C12.5233 14.91 13.7727 13.8847 14.6518 12.5691C15.5308 11.2535 16 9.70676 16 8.12451C15.9976 6.00352 15.154 3.9701 13.6542 2.47033C12.1544 0.970563 10.121 0.126932 8 0.124512V0.124512ZM8.85715 12.1245C8.85715 12.3518 8.76684 12.5699 8.6061 12.7306C8.44535 12.8913 8.22733 12.9817 8 12.9817C7.77268 12.9817 7.55466 12.8913 7.39391 12.7306C7.23317 12.5699 7.14286 12.3518 7.14286 12.1245V8.12451C7.14286 7.89718 7.23317 7.67917 7.39391 7.51842C7.55466 7.35768 7.77268 7.26737 8 7.26737C8.22733 7.26737 8.44535 7.35768 8.6061 7.51842C8.76684 7.67917 8.85715 7.89718 8.85715 8.12451V12.1245ZM8 5.8388C7.77397 5.8388 7.55301 5.77177 7.36507 5.64619C7.17712 5.52061 7.03064 5.34212 6.94414 5.13329C6.85764 4.92446 6.83501 4.69467 6.87911 4.47298C6.9232 4.25129 7.03205 4.04765 7.19188 3.88782C7.35171 3.72799 7.55535 3.61914 7.77704 3.57504C7.99874 3.53095 8.22853 3.55358 8.43736 3.64008C8.64619 3.72658 8.82468 3.87306 8.95026 4.061C9.07583 4.24895 9.14286 4.4699 9.14286 4.69594C9.14286 4.99904 9.02245 5.28973 8.80813 5.50406C8.5938 5.71839 8.30311 5.8388 8 5.8388Z" fill="#3CB37A"/>
</svg>