<svg width="150" height="21" viewBox="0 0 150 21" fill="none" xmlns="http://www.w3.org/2000/svg">
    <path fill-rule="evenodd" clip-rule="evenodd" d="M142 2H130.5C128.567 2 127 3.567 127 5.5V17.5C127 19.433 128.567 21 130.5 21H142.5C144.433 21 146 19.433 146 17.5V8.30952L145 9.35714V17.5C145 18.8807 143.881 20 142.5 20H130.5C129.119 20 128 18.8807 128 17.5V5.5C128 4.11929 129.119 3 130.5 3H141L142 2Z" fill="#6C6C6C"/>
    <path d="M131 9.85327V7.11149L135.688 11.5669L147.583 0H149.406L135.688 17.828L131 9.85327Z" fill="#FB3311"/>
    <path d="M13.7671 8.56509H10.4952C10.4355 8.14179 10.3135 7.76581 10.1292 7.43713C9.94495 7.10348 9.70841 6.81962 9.41957 6.58556C9.13073 6.3515 8.79708 6.17223 8.4186 6.04773C8.0451 5.92323 7.63924 5.86098 7.201 5.86098C6.40919 5.86098 5.71947 6.05769 5.13183 6.4511C4.5442 6.83954 4.08854 7.40725 3.76484 8.15424C3.44114 8.89626 3.2793 9.79763 3.2793 10.8584C3.2793 11.949 3.44114 12.8653 3.76484 13.6073C4.09352 14.3493 4.55167 14.9095 5.1393 15.288C5.72694 15.6665 6.4067 15.8557 7.17859 15.8557C7.61185 15.8557 8.01273 15.7985 8.38125 15.6839C8.75475 15.5694 9.08591 15.4026 9.37475 15.1834C9.66359 14.9593 9.90262 14.6879 10.0919 14.3692C10.2861 14.0505 10.4205 13.687 10.4952 13.2786L13.7671 13.2935C13.6824 13.9957 13.4708 14.673 13.1321 15.3254C12.7985 15.9728 12.3478 16.5529 11.7801 17.0659C11.2173 17.5738 10.545 17.9772 9.76319 18.276C8.98631 18.5698 8.10735 18.7167 7.1263 18.7167C5.7618 18.7167 4.54171 18.408 3.46604 17.7904C2.39535 17.1729 1.54876 16.279 0.92627 15.1087C0.308757 13.9385 0 12.5217 0 10.8584C0 9.19007 0.313737 7.77079 0.94121 6.6005C1.56868 5.43021 2.42025 4.5388 3.49592 3.92627C4.57159 3.30876 5.78172 3 7.1263 3C8.01273 3 8.83443 3.1245 9.59138 3.3735C10.3533 3.62249 11.0281 3.98603 11.6157 4.4641C12.2034 4.9372 12.6814 5.51736 13.0499 6.2046C13.4234 6.89183 13.6625 7.67866 13.7671 8.56509Z" fill="#4F4F4F"/>
    <path d="M18.5778 3.20916V18.5076H15.3957V3.20916H18.5778Z" fill="#4F4F4F"/>
    <path d="M23.7677 18.7242C23.0357 18.7242 22.3833 18.5972 21.8106 18.3432C21.2379 18.0843 20.7847 17.7033 20.4511 17.2003C20.1224 16.6924 19.9581 16.0599 19.9581 15.303C19.9581 14.6655 20.0751 14.1302 20.3091 13.6969C20.5432 13.2637 20.8619 12.9151 21.2653 12.6511C21.6687 12.3872 22.1268 12.188 22.6398 12.0535C23.1577 11.9191 23.7005 11.8245 24.2682 11.7697C24.9355 11.7 25.4733 11.6352 25.8817 11.5755C26.2901 11.5107 26.5864 11.4161 26.7706 11.2916C26.9549 11.1671 27.047 10.9829 27.047 10.7388V10.694C27.047 10.2209 26.8976 9.8549 26.5988 9.59594C26.305 9.33698 25.8867 9.2075 25.3439 9.2075C24.7712 9.2075 24.3155 9.33449 23.9769 9.58847C23.6382 9.83747 23.4141 10.1512 23.3046 10.5297L20.3614 10.2906C20.5108 9.59345 20.8046 8.99088 21.2429 8.48292C21.6811 7.96999 22.2463 7.57657 22.9386 7.30267C23.6357 7.0238 24.4425 6.88436 25.3588 6.88436C25.9962 6.88436 26.6063 6.95906 27.1889 7.10846C27.7766 7.25785 28.297 7.48942 28.7501 7.80316C29.2083 8.1169 29.5694 8.52027 29.8333 9.01329C30.0972 9.50132 30.2292 10.0865 30.2292 10.7687V18.5076H27.2113V16.9165H27.1217C26.9375 17.275 26.6909 17.5912 26.3822 17.8651C26.0734 18.1341 25.7024 18.3457 25.2692 18.5001C24.8359 18.6495 24.3354 18.7242 23.7677 18.7242ZM24.679 16.528C25.1472 16.528 25.5605 16.4359 25.9191 16.2516C26.2776 16.0624 26.559 15.8084 26.7632 15.4897C26.9673 15.171 27.0694 14.8099 27.0694 14.4066V13.189C26.9698 13.2537 26.8329 13.3135 26.6586 13.3682C26.4893 13.418 26.2975 13.4654 26.0834 13.5102C25.8693 13.55 25.6551 13.5874 25.441 13.6222C25.2268 13.6521 25.0326 13.6795 24.8583 13.7044C24.4848 13.7592 24.1586 13.8463 23.8798 13.9658C23.6009 14.0854 23.3843 14.2472 23.2299 14.4514C23.0755 14.6506 22.9983 14.8996 22.9983 15.1984C22.9983 15.6316 23.1552 15.9628 23.4689 16.1919C23.7876 16.416 24.191 16.528 24.679 16.528Z" fill="#4F4F4F"/>
    <path d="M41.6135 10.3056L38.7002 10.4849C38.6504 10.2359 38.5434 10.0118 38.379 9.81257C38.2147 9.60839 37.9981 9.44654 37.7291 9.32702C37.4652 9.20252 37.149 9.14027 36.7805 9.14027C36.2875 9.14027 35.8716 9.24485 35.533 9.45401C35.1944 9.65819 35.025 9.93209 35.025 10.2757C35.025 10.5496 35.1346 10.7812 35.3537 10.9704C35.5728 11.1596 35.9488 11.3115 36.4817 11.4261L38.5583 11.8444C39.6738 12.0735 40.5055 12.442 41.0533 12.9499C41.6011 13.4579 41.875 14.1252 41.875 14.9519C41.875 15.7038 41.6533 16.3637 41.2101 16.9314C40.7719 17.4991 40.1693 17.9423 39.4024 18.261C38.6405 18.5748 37.7615 18.7317 36.7655 18.7317C35.2466 18.7317 34.0365 18.4154 33.1351 17.783C32.2388 17.1455 31.7134 16.279 31.559 15.1834L34.6889 15.0191C34.7835 15.4822 35.0126 15.8358 35.3761 16.0798C35.7397 16.3189 36.2053 16.4384 36.773 16.4384C37.3307 16.4384 37.7789 16.3313 38.1176 16.1172C38.4612 15.8981 38.6355 15.6167 38.6405 15.2731C38.6355 14.9842 38.5135 14.7477 38.2744 14.5634C38.0354 14.3742 37.6669 14.2298 37.1689 14.1302L35.1819 13.7343C34.0614 13.5102 33.2273 13.1217 32.6795 12.569C32.1367 12.0162 31.8653 11.3115 31.8653 10.455C31.8653 9.71795 32.0645 9.083 32.4629 8.55015C32.8662 8.0173 33.4314 7.60645 34.1585 7.31761C34.8906 7.02878 35.7471 6.88436 36.7282 6.88436C38.1773 6.88436 39.3177 7.19063 40.1494 7.80316C40.986 8.41569 41.4741 9.24983 41.6135 10.3056Z" fill="#4F4F4F"/>
    <path d="M52.7943 10.3056L49.881 10.4849C49.8312 10.2359 49.7241 10.0118 49.5598 9.81257C49.3954 9.60839 49.1788 9.44654 48.9099 9.32702C48.646 9.20252 48.3297 9.14027 47.9612 9.14027C47.4682 9.14027 47.0524 9.24485 46.7137 9.45401C46.3751 9.65819 46.2058 9.93209 46.2058 10.2757C46.2058 10.5496 46.3153 10.7812 46.5345 10.9704C46.7536 11.1596 47.1296 11.3115 47.6624 11.4261L49.7391 11.8444C50.8546 12.0735 51.6862 12.442 52.234 12.9499C52.7818 13.4579 53.0557 14.1252 53.0557 14.9519C53.0557 15.7038 52.8341 16.3637 52.3909 16.9314C51.9526 17.4991 51.3501 17.9423 50.5832 18.261C49.8212 18.5748 48.9423 18.7317 47.9463 18.7317C46.4274 18.7317 45.2173 18.4154 44.3159 17.783C43.4195 17.1455 42.8941 16.279 42.7397 15.1834L45.8696 15.0191C45.9643 15.4822 46.1933 15.8358 46.5569 16.0798C46.9204 16.3189 47.386 16.4384 47.9537 16.4384C48.5115 16.4384 48.9597 16.3313 49.2983 16.1172C49.6419 15.8981 49.8162 15.6167 49.8212 15.2731C49.8162 14.9842 49.6942 14.7477 49.4552 14.5634C49.2162 14.3742 48.8476 14.2298 48.3497 14.1302L46.3627 13.7343C45.2422 13.5102 44.408 13.1217 43.8602 12.569C43.3174 12.0162 43.046 11.3115 43.046 10.455C43.046 9.71795 43.2452 9.083 43.6436 8.55015C44.047 8.0173 44.6122 7.60645 45.3393 7.31761C46.0713 7.02878 46.9279 6.88436 47.9089 6.88436C49.3581 6.88436 50.4985 7.19063 51.3302 7.80316C52.1668 8.41569 52.6548 9.24983 52.7943 10.3056Z" fill="#4F4F4F"/>
    <path d="M54.4882 3.20916H58.4771L62.6902 13.4878H62.8695L67.0825 3.20916H71.0714V18.5076H67.9341V8.55015H67.8071L63.848 18.4329H61.7116L57.7526 8.5128H57.6256V18.5076H54.4882V3.20916Z" fill="#4F4F4F"/>
    <path d="M76.3173 18.7242C75.5853 18.7242 74.9329 18.5972 74.3602 18.3432C73.7875 18.0843 73.3343 17.7033 73.0007 17.2003C72.672 16.6924 72.5077 16.0599 72.5077 15.303C72.5077 14.6655 72.6247 14.1302 72.8588 13.6969C73.0928 13.2637 73.4115 12.9151 73.8149 12.6511C74.2183 12.3872 74.6764 12.188 75.1894 12.0535C75.7073 11.9191 76.2501 11.8245 76.8178 11.7697C77.4851 11.7 78.023 11.6352 78.4313 11.5755C78.8397 11.5107 79.136 11.4161 79.3202 11.2916C79.5045 11.1671 79.5966 10.9829 79.5966 10.7388V10.694C79.5966 10.2209 79.4472 9.8549 79.1484 9.59594C78.8546 9.33698 78.4363 9.2075 77.8935 9.2075C77.3208 9.2075 76.8651 9.33449 76.5265 9.58847C76.1879 9.83747 75.9638 10.1512 75.8542 10.5297L72.911 10.2906C73.0604 9.59345 73.3543 8.99088 73.7925 8.48292C74.2307 7.96999 74.796 7.57657 75.4882 7.30267C76.1854 7.0238 76.9921 6.88436 77.9084 6.88436C78.5459 6.88436 79.1559 6.95906 79.7386 7.10846C80.3262 7.25785 80.8466 7.48942 81.2998 7.80316C81.7579 8.1169 82.119 8.52027 82.3829 9.01329C82.6468 9.50132 82.7788 10.0865 82.7788 10.7687V18.5076H79.761V16.9165H79.6713C79.4871 17.275 79.2406 17.5912 78.9318 17.8651C78.623 18.1341 78.252 18.3457 77.8188 18.5001C77.3855 18.6495 76.885 18.7242 76.3173 18.7242ZM77.2287 16.528C77.6968 16.528 78.1101 16.4359 78.4687 16.2516C78.8272 16.0624 79.1086 15.8084 79.3128 15.4897C79.5169 15.171 79.619 14.8099 79.619 14.4066V13.189C79.5194 13.2537 79.3825 13.3135 79.2082 13.3682C79.0389 13.418 78.8471 13.4654 78.633 13.5102C78.4189 13.55 78.2047 13.5874 77.9906 13.6222C77.7765 13.6521 77.5822 13.6795 77.4079 13.7044C77.0344 13.7592 76.7083 13.8463 76.4294 13.9658C76.1505 14.0854 75.9339 14.2472 75.7795 14.4514C75.6251 14.6506 75.5479 14.8996 75.5479 15.1984C75.5479 15.6316 75.7048 15.9628 76.0185 16.1919C76.3372 16.416 76.7406 16.528 77.2287 16.528Z" fill="#4F4F4F"/>
    <path d="M84.6166 18.5076V7.03376H87.7016V9.0357H87.8212C88.0303 8.32356 88.3814 7.78573 88.8744 7.42219C89.3674 7.05368 89.9351 6.86942 90.5776 6.86942C90.7369 6.86942 90.9087 6.87938 91.093 6.8993C91.2772 6.91922 91.4391 6.94661 91.5785 6.98147V9.8051C91.4291 9.76028 91.2225 9.72044 90.9585 9.68558C90.6946 9.65072 90.4531 9.63329 90.2339 9.63329C89.7658 9.63329 89.3475 9.73538 88.979 9.93956C88.6155 10.1388 88.3266 10.4176 88.1125 10.7762C87.9033 11.1347 87.7987 11.5481 87.7987 12.0162V18.5076H84.6166Z" fill="#4F4F4F"/>
    <path d="M95.4761 15.2058L95.4836 11.3887H95.9467L99.6219 7.03376H103.275L98.3371 12.8005H97.5826L95.4761 15.2058ZM92.5927 18.5076V3.20916H95.7749V18.5076H92.5927ZM99.7638 18.5076L96.3874 13.5102L98.5089 11.2617L103.491 18.5076H99.7638Z" fill="#4F4F4F"/>
    <path d="M108.961 18.7317C107.781 18.7317 106.765 18.4926 105.914 18.0145C105.067 17.5315 104.415 16.8492 103.956 15.9678C103.498 15.0813 103.269 14.0331 103.269 12.8229C103.269 11.6427 103.498 10.6069 103.956 9.71546C104.415 8.82405 105.06 8.12934 105.891 7.63135C106.728 7.13336 107.709 6.88436 108.834 6.88436C109.591 6.88436 110.296 7.00637 110.948 7.25038C111.606 7.48942 112.178 7.85047 112.666 8.33352C113.159 8.81658 113.543 9.42413 113.817 10.1562C114.091 10.8833 114.228 11.7348 114.228 12.7109V13.5849H104.539V11.6128H111.232C111.232 11.1547 111.133 10.7488 110.933 10.3952C110.734 10.0416 110.458 9.76526 110.104 9.56606C109.756 9.36188 109.35 9.25979 108.887 9.25979C108.404 9.25979 107.975 9.37184 107.602 9.59594C107.233 9.81506 106.944 10.1114 106.735 10.4849C106.526 10.8534 106.419 11.2642 106.414 11.7174V13.5923C106.414 14.1601 106.519 14.6506 106.728 15.0639C106.942 15.4773 107.243 15.796 107.632 16.0201C108.02 16.2442 108.481 16.3562 109.014 16.3562C109.367 16.3562 109.691 16.3064 109.985 16.2068C110.279 16.1072 110.53 15.9578 110.739 15.7586C110.948 15.5594 111.108 15.3154 111.217 15.0266L114.16 15.2208C114.011 15.9279 113.705 16.5455 113.242 17.0733C112.783 17.5962 112.191 18.0046 111.464 18.2984C110.742 18.5872 109.908 18.7317 108.961 18.7317Z" fill="#4F4F4F"/>
    <path d="M115.673 18.5076V7.03376H118.758V9.0357H118.878C119.087 8.32356 119.438 7.78573 119.931 7.42219C120.424 7.05368 120.992 6.86942 121.634 6.86942C121.794 6.86942 121.965 6.87938 122.15 6.8993C122.334 6.91922 122.496 6.94661 122.635 6.98147V9.8051C122.486 9.76028 122.279 9.72044 122.015 9.68558C121.751 9.65072 121.51 9.63329 121.291 9.63329C120.822 9.63329 120.404 9.73538 120.036 9.93956C119.672 10.1388 119.383 10.4176 119.169 10.7762C118.96 11.1347 118.855 11.5481 118.855 12.0162V18.5076H115.673Z" fill="#4F4F4F"/>
</svg>
