<svg width="32" height="32" viewBox="0 0 32 32" fill="none" xmlns="http://www.w3.org/2000/svg">
    <circle cx="16" cy="16" r="16" fill="white"/>
    <g opacity="0.6" clip-path="url(#clip0_6064_40573)">
        <path d="M22.0782 14.6932L21.3432 14.4307C21.2368 14.3943 21.1395 14.3353 21.0579 14.2578C20.9764 14.1802 20.9125 14.086 20.8707 13.9816C20.8259 13.8795 20.8028 13.7693 20.8028 13.6578C20.8028 13.5463 20.8259 13.4361 20.8707 13.3341L21.2499 12.6224C21.3731 12.3644 21.4133 12.0746 21.365 11.7928C21.3166 11.511 21.1821 11.2512 20.98 11.049C20.7778 10.8469 20.5179 10.7123 20.2362 10.664C19.9544 10.6156 19.6646 10.6558 19.4066 10.7791L18.6949 11.1174C18.5924 11.1605 18.4824 11.1828 18.3712 11.1828C18.26 11.1828 18.1499 11.1605 18.0474 11.1174C17.9441 11.0737 17.8509 11.0092 17.7736 10.9279C17.6964 10.8466 17.6367 10.7503 17.5982 10.6449L17.3357 9.90406C17.2391 9.63493 17.0618 9.4022 16.8279 9.23768C16.594 9.07316 16.315 8.98486 16.0291 8.98486C15.7431 8.98486 15.4642 9.07316 15.2303 9.23768C14.9964 9.4022 14.819 9.63493 14.7224 9.90406L14.4307 10.6624C14.3923 10.7678 14.3326 10.8641 14.2554 10.9454C14.1781 11.0267 14.0849 11.0912 13.9816 11.1349C13.8791 11.178 13.769 11.2003 13.6578 11.2003C13.5466 11.2003 13.4366 11.178 13.3341 11.1349L12.6224 10.7791C12.3644 10.6558 12.0746 10.6156 11.7928 10.664C11.511 10.7123 11.2512 10.8469 11.049 11.049C10.8469 11.2512 10.7124 11.511 10.664 11.7928C10.6157 12.0746 10.6559 12.3644 10.7791 12.6224L11.1174 13.3341C11.1622 13.4361 11.1854 13.5463 11.1854 13.6578C11.1854 13.7693 11.1622 13.8795 11.1174 13.9816C11.0756 14.086 11.0118 14.1802 10.9302 14.2578C10.8487 14.3353 10.7514 14.3943 10.6449 14.4307L9.90992 14.6932C9.64079 14.7899 9.40806 14.9672 9.24354 15.2011C9.07902 15.435 8.99072 15.7139 8.99072 15.9999C8.99072 16.2858 9.07902 16.5648 9.24354 16.7987C9.40806 17.0326 9.64079 17.2099 9.90992 17.3066L10.6449 17.5691C10.7514 17.6055 10.8487 17.6645 10.9302 17.742C11.0118 17.8196 11.0756 17.9138 11.1174 18.0182C11.1622 18.1203 11.1854 18.2305 11.1854 18.342C11.1854 18.4534 11.1622 18.5637 11.1174 18.6657L10.7791 19.3774C10.6454 19.6363 10.5969 19.9308 10.6406 20.2189C10.6843 20.507 10.8179 20.7739 11.0223 20.9815C11.2267 21.1892 11.4915 21.3269 11.7788 21.3751C12.0662 21.4233 12.3614 21.3795 12.6224 21.2499L13.3341 20.9174C13.4357 20.8711 13.5461 20.8472 13.6578 20.8472C13.7695 20.8472 13.8799 20.8711 13.9816 20.9174C14.0855 20.9602 14.1791 21.0243 14.2565 21.1058C14.3339 21.1872 14.3933 21.284 14.4307 21.3899L14.6932 22.1249C14.7899 22.394 14.9672 22.6267 15.2011 22.7913C15.435 22.9558 15.714 23.0441 15.9999 23.0441C16.2859 23.0441 16.5648 22.9558 16.7987 22.7913C17.0326 22.6267 17.21 22.394 17.3066 22.1249L17.5691 21.3899C17.6065 21.284 17.6659 21.1872 17.7433 21.1058C17.8207 21.0243 17.9144 20.9602 18.0182 20.9174C18.1199 20.8711 18.2303 20.8472 18.342 20.8472C18.4537 20.8472 18.5641 20.8711 18.6657 20.9174L19.3774 21.2499C19.6392 21.3907 19.9394 21.4434 20.2334 21.4002C20.5275 21.357 20.7998 21.2202 21.01 21.01C21.2202 20.7998 21.357 20.5275 21.4002 20.2334C21.4435 19.9393 21.3907 19.6391 21.2499 19.3774L20.9116 18.6657C20.8668 18.5637 20.8436 18.4534 20.8436 18.342C20.8436 18.2305 20.8668 18.1203 20.9116 18.0182C20.9534 17.9138 21.0172 17.8196 21.0988 17.742C21.1803 17.6645 21.2776 17.6055 21.3841 17.5691L22.1191 17.3066C22.3882 17.2099 22.6209 17.0326 22.7855 16.7987C22.95 16.5648 23.0383 16.2858 23.0383 15.9999C23.0383 15.7139 22.95 15.435 22.7855 15.2011C22.6209 14.9672 22.3882 14.7899 22.1191 14.6932H22.0782ZM15.9999 18.7941C15.4498 18.7807 14.9148 18.6121 14.4565 18.3076C13.9982 18.0031 13.6354 17.5752 13.4099 17.0732C13.2685 16.7332 13.1955 16.3685 13.1952 16.0002C13.1949 15.6319 13.2673 15.2672 13.4082 14.9269C13.5491 14.5866 13.7557 14.2774 14.0162 14.0171C14.2768 13.7568 14.5862 13.5505 14.9266 13.4099C15.6144 13.1353 16.3823 13.1402 17.0666 13.4235C17.7509 13.7068 18.2975 14.2461 18.5899 14.9266C18.7314 15.2666 18.8043 15.6313 18.8046 15.9996C18.8049 16.3679 18.7325 16.7326 18.5917 17.0729C18.4508 17.4132 18.2441 17.7224 17.9836 17.9827C17.723 18.243 17.4137 18.4493 17.0732 18.5899C16.7336 18.732 16.368 18.8015 15.9999 18.7941Z" fill="#6A7680"/>
    </g>
    <defs>
        <clipPath id="clip0_6064_40573">
            <rect width="14" height="14" fill="white" transform="translate(9 9)"/>
        </clipPath>
    </defs>
</svg>
